<svg width="140" height="50" viewBox="0 0 137 83" fill="none" xmlns="http://www.w3.org/2000/svg">
<path d="M13 18.6C16.2667 19.6667 18.9 21.2 20.9 23.2C23.0333 25.1333 24.3667 27.7333 24.9 31L31.6 13.5L19.4 16.8C18.4667 17 17.4667 17.2667 16.4 17.6C15.4 17.9333 14.2667 18.2667 13 18.6ZM60.5 2.7C62.0333 4.43333 62.9333 6.2 63.2 8C63.3333 10.1333 63.2 11.7 62.8 12.7C62.2667 13.7 61.6 13.7 60.8 12.7C58.2667 10.6333 53.7333 9.96666 47.2 10.7C43.8667 11.0333 41.1667 11.3667 39.1 11.7C37.1 12.0333 35.7 12.3667 34.9 12.7C36.1 12.7 37.1333 13 38 13.6C38.4667 13.8667 38.9333 14.1667 39.4 14.5C39.8667 14.8333 40.3333 15.1667 40.8 15.5C41.6 16.3 41.8333 17.1 41.5 17.9C31.2333 38.7 23.2333 57.9333 17.5 75.6C16.8333 76.8667 15.6667 77.4 14 77.2C12.1333 76.8 10.5333 76.0333 9.2 74.9C7.8 73.6333 7.33333 72.3333 7.8 71C9.13333 67.8 10.3 64.9333 11.3 62.4C12.3 59.8 13.1667 57.5 13.9 55.5C14.5667 53.5667 15.1667 51.7667 15.7 50.1C16.2333 48.3667 16.6667 46.7667 17 45.3C17.5333 43.0333 18 40.5333 18.4 37.8C18.8 34.9333 18.8 32.2 18.4 29.6C17.8667 26.9333 16.5333 24.6667 14.4 22.8C12.4 20.8667 9.73333 20.0667 6.4 20.4C5 20.6 3.76667 19.9667 2.7 18.5C2.16667 17.8333 1.76667 17.1667 1.5 16.5C1.3 15.8333 1.13333 15.1333 1 14.4C0.8 12.9333 1.4 11.8667 2.8 11.2C6.46667 10.1333 10.0667 9.03333 13.6 7.9C18.5333 6.56666 22.9333 5.4 26.8 4.4C30.7333 3.4 34.2 2.6 37.2 2C40.2 1.4 42.9333 0.933331 45.4 0.599998C47.8667 0.266665 50.1 0.133332 52.1 0.199997C56.2333 0.333329 59.0333 1.16666 60.5 2.7ZM75.5625 41C75.7625 40.6667 76.0625 40.5333 76.4625 40.6C76.9292 40.6 77.3625 40.7333 77.7625 41C78.2292 41.2 78.5958 41.4667 78.8625 41.8C79.1958 42.1333 79.3292 42.4 79.2625 42.6C78.7958 43.6667 78.1625 45.0667 77.3625 46.8C76.6292 48.5333 75.7292 50.4 74.6625 52.4C73.6625 54.4 72.5625 56.4 71.3625 58.4C70.2292 60.3333 69.0292 62.0333 67.7625 63.5C66.4958 64.9667 65.2292 66.1 63.9625 66.9C62.6958 67.6333 61.4625 67.7333 60.2625 67.2C58.1292 66.2 56.4958 65.0333 55.3625 63.7C54.2958 62.3667 53.8958 60.4333 54.1625 57.9C52.9625 59.7 51.8292 61.3667 50.7625 62.9C49.6958 64.4333 48.1292 66.2667 46.0625 68.4C45.3292 69.2 44.2958 69.6667 42.9625 69.8C41.6292 69.9333 40.3292 69.8333 39.0625 69.5C37.7292 69.1 36.5625 68.5 35.5625 67.7C34.5625 66.9 34.0292 65.9667 33.9625 64.9C33.8958 63.7 34.0292 62.1667 34.3625 60.3C34.6958 58.4333 35.1625 56.4333 35.7625 54.3C36.2958 52.1 36.9625 49.9 37.7625 47.7C38.4958 45.5 39.2625 43.4667 40.0625 41.6C40.7958 39.6667 41.4958 38.0667 42.1625 36.8C42.8292 35.4667 43.3958 34.6 43.8625 34.2C44.3292 33.7333 45.0292 33.5667 45.9625 33.7C46.8958 33.7667 47.7625 34 48.5625 34.4C49.4292 34.8 50.0958 35.3 50.5625 35.9C51.0958 36.4333 51.2292 36.9333 50.9625 37.4C50.4292 38.3333 49.6958 39.9333 48.7625 42.2C47.8292 44.4 46.8958 46.8 45.9625 49.4C45.0292 51.9333 44.1958 54.4 43.4625 56.8C42.7292 59.1333 42.3292 60.8667 42.2625 62C42.5958 61.9333 43.1292 61.4333 43.8625 60.5C44.6625 59.5667 45.5625 58.3333 46.5625 56.8C47.6292 55.2 48.7625 53.3667 49.9625 51.3C51.1625 49.2333 52.3958 47.0667 53.6625 44.8C54.9958 42.4667 56.2625 40.1 57.4625 37.7C58.7292 35.3 59.8958 32.9333 60.9625 30.6C61.3625 29.7333 62.0625 29.3 63.0625 29.3C64.1292 29.3 65.1625 29.5333 66.1625 30C67.1625 30.4667 67.9625 31.1 68.5625 31.9C69.2292 32.6333 69.4292 33.3 69.1625 33.9C68.4292 35.5 67.5958 37.6 66.6625 40.2C65.7292 42.7333 64.8625 45.4 64.0625 48.2C63.3292 50.9333 62.7292 53.5333 62.2625 56C61.7958 58.4667 61.6625 60.3333 61.8625 61.6C63.1292 60.8 64.4292 59.5333 65.7625 57.8C67.0958 56.0667 68.3625 54.2 69.5625 52.2C70.8292 50.2 71.9625 48.2 72.9625 46.2C74.0292 44.1333 74.8958 42.4 75.5625 41ZM100.123 41.4C100.523 41.1333 100.89 41.1667 101.223 41.5C101.557 41.8333 101.79 42.3 101.923 42.9C102.057 43.4333 102.057 44.0333 101.923 44.7C101.79 45.3 101.49 45.7333 101.023 46C98.8234 47.7333 96.2234 48.8333 93.2234 49.3C90.2901 49.7667 87.3234 49.7333 84.3234 49.2C85.6568 50.2 86.5901 51.5 87.1234 53.1C87.6568 54.6333 87.8901 56.3333 87.8234 58.2C87.8234 60.0667 87.5568 62.0333 87.0234 64.1C86.5568 66.1 85.9568 68.0667 85.2234 70C84.4901 71.8667 83.6901 73.6 82.8234 75.2C81.9568 76.8667 81.1568 78.2333 80.4234 79.3C79.0901 81.3 77.5234 82.4 75.7234 82.6C73.9234 82.8667 71.8901 82.7333 69.6234 82.2C68.2901 81.9333 67.2901 81.4 66.6234 80.6C65.9568 79.8 65.4901 78.8667 65.2234 77.8C64.8901 76.8 64.7234 75.7333 64.7234 74.6C64.7234 73.4 64.7901 72.3 64.9234 71.3C65.1234 69.5 65.6901 67.0333 66.6234 63.9C67.4901 60.7 68.6234 57.2 70.0234 53.4C71.3568 49.5333 72.9234 45.5667 74.7234 41.5C76.4568 37.3667 78.3234 33.4667 80.3234 29.8C82.3234 26.0667 84.3901 22.7333 86.5234 19.8C88.6568 16.8667 90.7568 14.6667 92.8234 13.2C93.4901 12.7333 94.3568 12.7667 95.4234 13.3C96.4901 13.7667 97.4568 14.4667 98.3234 15.4C99.2568 16.3333 99.9234 17.3333 100.323 18.4C100.723 19.4 100.557 20.2 99.8234 20.8C98.1568 22 96.5234 23.4333 94.9234 25.1C93.3901 26.7667 91.9234 28.5667 90.5234 30.5C89.1234 32.4333 87.8568 34.4333 86.7234 36.5C85.5901 38.5667 84.6568 40.6 83.9234 42.6C85.1901 43.2 86.5568 43.6333 88.0234 43.9C89.4901 44.1 90.9234 44.1667 92.3234 44.1C93.7901 43.9667 95.1901 43.7 96.5234 43.3C97.8568 42.8333 99.0568 42.2 100.123 41.4ZM74.0234 76.1C74.8901 75.1 75.7568 73.8 76.6234 72.2C77.4901 70.5333 78.2568 68.8 78.9234 67C79.6568 65.2 80.2234 63.4 80.6234 61.6C81.0901 59.8 81.2901 58.2 81.2234 56.8C81.2234 56.0667 81.1234 55.3333 80.9234 54.6C80.7901 53.8 80.4901 53.0333 80.0234 52.3C79.7568 52.7667 79.4234 53.5 79.0234 54.5C78.6901 55.4333 78.3234 56.4667 77.9234 57.6C77.5901 58.6667 77.2568 59.7 76.9234 60.7C76.5901 61.7 76.3234 62.5 76.1234 63.1C75.4568 65.1667 74.8901 67.3333 74.4234 69.6C73.9568 71.8 73.8234 73.9667 74.0234 76.1ZM132.398 41C132.598 40.6667 132.898 40.5333 133.298 40.6C133.765 40.6 134.198 40.7333 134.598 41C135.065 41.2 135.432 41.4667 135.698 41.8C136.032 42.1333 136.165 42.4 136.098 42.6C135.632 43.6667 134.998 45.0667 134.198 46.8C133.465 48.5333 132.565 50.4 131.498 52.4C130.498 54.4 129.398 56.4 128.198 58.4C127.065 60.3333 125.865 62.0333 124.598 63.5C123.332 64.9667 122.065 66.1 120.798 66.9C119.532 67.6333 118.298 67.7333 117.098 67.2C114.965 66.2 113.332 65.0333 112.198 63.7C111.132 62.3667 110.732 60.4333 110.998 57.9C109.798 59.7 108.665 61.3667 107.598 62.9C106.532 64.4333 104.965 66.2667 102.898 68.4C102.165 69.2 101.132 69.6667 99.7984 69.8C98.4651 69.9333 97.1651 69.8333 95.8984 69.5C94.5651 69.1 93.3984 68.5 92.3984 67.7C91.3984 66.9 90.8651 65.9667 90.7984 64.9C90.7318 63.7 90.8651 62.1667 91.1984 60.3C91.5318 58.4333 91.9984 56.4333 92.5984 54.3C93.1318 52.1 93.7984 49.9 94.5984 47.7C95.3318 45.5 96.0984 43.4667 96.8984 41.6C97.6318 39.6667 98.3318 38.0667 98.9984 36.8C99.6651 35.4667 100.232 34.6 100.698 34.2C101.165 33.7333 101.865 33.5667 102.798 33.7C103.732 33.7667 104.598 34 105.398 34.4C106.265 34.8 106.932 35.3 107.398 35.9C107.932 36.4333 108.065 36.9333 107.798 37.4C107.265 38.3333 106.532 39.9333 105.598 42.2C104.665 44.4 103.732 46.8 102.798 49.4C101.865 51.9333 101.032 54.4 100.298 56.8C99.5651 59.1333 99.1651 60.8667 99.0984 62C99.4318 61.9333 99.9651 61.4333 100.698 60.5C101.498 59.5667 102.398 58.3333 103.398 56.8C104.465 55.2 105.598 53.3667 106.798 51.3C107.998 49.2333 109.232 47.0667 110.498 44.8C111.832 42.4667 113.098 40.1 114.298 37.7C115.565 35.3 116.732 32.9333 117.798 30.6C118.198 29.7333 118.898 29.3 119.898 29.3C120.965 29.3 121.998 29.5333 122.998 30C123.998 30.4667 124.798 31.1 125.398 31.9C126.065 32.6333 126.265 33.3 125.998 33.9C125.265 35.5 124.432 37.6 123.498 40.2C122.565 42.7333 121.698 45.4 120.898 48.2C120.165 50.9333 119.565 53.5333 119.098 56C118.632 58.4667 118.498 60.3333 118.698 61.6C119.965 60.8 121.265 59.5333 122.598 57.8C123.932 56.0667 125.198 54.2 126.398 52.2C127.665 50.2 128.798 48.2 129.798 46.2C130.865 44.1333 131.732 42.4 132.398 41Z" fill="black"/>
</svg>
