<svg width="140" height="50" viewBox="0 0 272 166" fill="none" xmlns="http://www.w3.org/2000/svg">
<path d="M25 37.2C31.5333 39.3333 36.8 42.4 40.8 46.4C45.0667 50.2667 47.7333 55.4667 48.8 62L62.2 27L37.8 33.6C35.9333 34 33.9333 34.5333 31.8 35.2C29.8 35.8667 27.5333 36.5333 25 37.2ZM120 5.39999C123.067 8.86666 124.867 12.4 125.4 16C125.667 20.2667 125.4 23.4 124.6 25.4C123.533 27.4 122.2 27.4 120.6 25.4C115.533 21.2667 106.467 19.9333 93.4 21.4C86.7333 22.0667 81.3333 22.7333 77.2 23.4C73.2 24.0667 70.4 24.7333 68.8 25.4C71.2 25.4 73.2667 26 75 27.2C75.9333 27.7333 76.8667 28.3333 77.8 29C78.7333 29.6667 79.6667 30.3333 80.6 31C82.2 32.6 82.6667 34.2 82 35.8C61.4667 77.4 45.4667 115.867 34 151.2C32.6667 153.733 30.3333 154.8 27 154.4C23.2667 153.6 20.0667 152.067 17.4 149.8C14.6 147.267 13.6667 144.667 14.6 142C17.2667 135.6 19.6 129.867 21.6 124.8C23.6 119.6 25.3333 115 26.8 111C28.1333 107.133 29.3333 103.533 30.4 100.2C31.4667 96.7333 32.3333 93.5333 33 90.6C34.0667 86.0667 35 81.0667 35.8 75.6C36.6 69.8667 36.6 64.4 35.8 59.2C34.7333 53.8667 32.0667 49.3333 27.8 45.6C23.8 41.7333 18.4667 40.1333 11.8 40.8C9 41.2 6.53333 39.9333 4.4 37C3.33333 35.6667 2.53333 34.3333 2 33C1.6 31.6667 1.26667 30.2667 1 28.8C0.6 25.8667 1.8 23.7333 4.6 22.4C11.9333 20.2667 19.1333 18.0667 26.2 15.8C36.0667 13.1333 44.8667 10.8 52.6 8.79999C60.4667 6.8 67.4 5.2 73.4 4C79.4 2.8 84.8667 1.86666 89.8 1.2C94.7333 0.53333 99.2 0.266663 103.2 0.399995C111.467 0.666658 117.067 2.33332 120 5.39999ZM150.125 82C150.525 81.3333 151.125 81.0667 151.925 81.2C152.858 81.2 153.725 81.4667 154.525 82C155.458 82.4 156.192 82.9333 156.725 83.6C157.392 84.2667 157.658 84.8 157.525 85.2C156.592 87.3333 155.325 90.1333 153.725 93.6C152.258 97.0667 150.458 100.8 148.325 104.8C146.325 108.8 144.125 112.8 141.725 116.8C139.458 120.667 137.058 124.067 134.525 127C131.992 129.933 129.458 132.2 126.925 133.8C124.392 135.267 121.925 135.467 119.525 134.4C115.258 132.4 111.992 130.067 109.725 127.4C107.592 124.733 106.792 120.867 107.325 115.8C104.925 119.4 102.658 122.733 100.525 125.8C98.3917 128.867 95.2583 132.533 91.125 136.8C89.6583 138.4 87.5917 139.333 84.925 139.6C82.2583 139.867 79.6583 139.667 77.125 139C74.4583 138.2 72.125 137 70.125 135.4C68.125 133.8 67.0583 131.933 66.925 129.8C66.7917 127.4 67.0583 124.333 67.725 120.6C68.3917 116.867 69.325 112.867 70.525 108.6C71.5917 104.2 72.925 99.8 74.525 95.4C75.9917 91 77.525 86.9333 79.125 83.2C80.5917 79.3333 81.9917 76.1333 83.325 73.6C84.6583 70.9333 85.7917 69.2 86.725 68.4C87.6583 67.4667 89.0583 67.1333 90.925 67.4C92.7917 67.5333 94.525 68 96.125 68.8C97.8583 69.6 99.1917 70.6 100.125 71.8C101.192 72.8667 101.458 73.8667 100.925 74.8C99.8583 76.6667 98.3917 79.8667 96.525 84.4C94.6583 88.8 92.7917 93.6 90.925 98.8C89.0583 103.867 87.3917 108.8 85.925 113.6C84.4583 118.267 83.6583 121.733 83.525 124C84.1917 123.867 85.2583 122.867 86.725 121C88.325 119.133 90.125 116.667 92.125 113.6C94.2583 110.4 96.525 106.733 98.925 102.6C101.325 98.4667 103.792 94.1333 106.325 89.6C108.992 84.9333 111.525 80.2 113.925 75.4C116.458 70.6 118.792 65.8667 120.925 61.2C121.725 59.4667 123.125 58.6 125.125 58.6C127.258 58.6 129.325 59.0667 131.325 60C133.325 60.9333 134.925 62.2 136.125 63.8C137.458 65.2667 137.858 66.6 137.325 67.8C135.858 71 134.192 75.2 132.325 80.4C130.458 85.4667 128.725 90.8 127.125 96.4C125.658 101.867 124.458 107.067 123.525 112C122.592 116.933 122.325 120.667 122.725 123.2C125.258 121.6 127.858 119.067 130.525 115.6C133.192 112.133 135.725 108.4 138.125 104.4C140.658 100.4 142.925 96.4 144.925 92.4C147.058 88.2667 148.792 84.8 150.125 82ZM199.247 82.8C200.047 82.2667 200.78 82.3333 201.447 83C202.114 83.6667 202.58 84.6 202.847 85.8C203.114 86.8667 203.114 88.0667 202.847 89.4C202.58 90.6 201.98 91.4667 201.047 92C196.647 95.4667 191.447 97.6667 185.447 98.6C179.58 99.5333 173.647 99.4667 167.647 98.4C170.314 100.4 172.18 103 173.247 106.2C174.314 109.267 174.78 112.667 174.647 116.4C174.647 120.133 174.114 124.067 173.047 128.2C172.114 132.2 170.914 136.133 169.447 140C167.98 143.733 166.38 147.2 164.647 150.4C162.914 153.733 161.314 156.467 159.847 158.6C157.18 162.6 154.047 164.8 150.447 165.2C146.847 165.733 142.78 165.467 138.247 164.4C135.58 163.867 133.58 162.8 132.247 161.2C130.914 159.6 129.98 157.733 129.447 155.6C128.78 153.6 128.447 151.467 128.447 149.2C128.447 146.8 128.58 144.6 128.847 142.6C129.247 139 130.38 134.067 132.247 127.8C133.98 121.4 136.247 114.4 139.047 106.8C141.714 99.0667 144.847 91.1333 148.447 83C151.914 74.7333 155.647 66.9333 159.647 59.6C163.647 52.1333 167.78 45.4667 172.047 39.6C176.314 33.7333 180.514 29.3333 184.647 26.4C185.98 25.4667 187.714 25.5333 189.847 26.6C191.98 27.5333 193.914 28.9333 195.647 30.8C197.514 32.6667 198.847 34.6667 199.647 36.8C200.447 38.8 200.114 40.4 198.647 41.6C195.314 44 192.047 46.8667 188.847 50.2C185.78 53.5333 182.847 57.1333 180.047 61C177.247 64.8667 174.714 68.8667 172.447 73C170.18 77.1333 168.314 81.2 166.847 85.2C169.38 86.4 172.114 87.2667 175.047 87.8C177.98 88.2 180.847 88.3333 183.647 88.2C186.58 87.9333 189.38 87.4 192.047 86.6C194.714 85.6667 197.114 84.4 199.247 82.8ZM147.047 152.2C148.78 150.2 150.514 147.6 152.247 144.4C153.98 141.067 155.514 137.6 156.847 134C158.314 130.4 159.447 126.8 160.247 123.2C161.18 119.6 161.58 116.4 161.447 113.6C161.447 112.133 161.247 110.667 160.847 109.2C160.58 107.6 159.98 106.067 159.047 104.6C158.514 105.533 157.847 107 157.047 109C156.38 110.867 155.647 112.933 154.847 115.2C154.18 117.333 153.514 119.4 152.847 121.4C152.18 123.4 151.647 125 151.247 126.2C149.914 130.333 148.78 134.667 147.847 139.2C146.914 143.6 146.647 147.933 147.047 152.2ZM263.797 82C264.197 81.3333 264.797 81.0667 265.597 81.2C266.53 81.2 267.397 81.4667 268.197 82C269.13 82.4 269.864 82.9333 270.397 83.6C271.064 84.2667 271.33 84.8 271.197 85.2C270.264 87.3333 268.997 90.1333 267.397 93.6C265.93 97.0667 264.13 100.8 261.997 104.8C259.997 108.8 257.797 112.8 255.397 116.8C253.13 120.667 250.73 124.067 248.197 127C245.664 129.933 243.13 132.2 240.597 133.8C238.064 135.267 235.597 135.467 233.197 134.4C228.93 132.4 225.664 130.067 223.397 127.4C221.264 124.733 220.464 120.867 220.997 115.8C218.597 119.4 216.33 122.733 214.197 125.8C212.064 128.867 208.93 132.533 204.797 136.8C203.33 138.4 201.264 139.333 198.597 139.6C195.93 139.867 193.33 139.667 190.797 139C188.13 138.2 185.797 137 183.797 135.4C181.797 133.8 180.73 131.933 180.597 129.8C180.464 127.4 180.73 124.333 181.397 120.6C182.064 116.867 182.997 112.867 184.197 108.6C185.264 104.2 186.597 99.8 188.197 95.4C189.664 91 191.197 86.9333 192.797 83.2C194.264 79.3333 195.664 76.1333 196.997 73.6C198.33 70.9333 199.464 69.2 200.397 68.4C201.33 67.4667 202.73 67.1333 204.597 67.4C206.464 67.5333 208.197 68 209.797 68.8C211.53 69.6 212.864 70.6 213.797 71.8C214.864 72.8667 215.13 73.8667 214.597 74.8C213.53 76.6667 212.064 79.8667 210.197 84.4C208.33 88.8 206.464 93.6 204.597 98.8C202.73 103.867 201.064 108.8 199.597 113.6C198.13 118.267 197.33 121.733 197.197 124C197.864 123.867 198.93 122.867 200.397 121C201.997 119.133 203.797 116.667 205.797 113.6C207.93 110.4 210.197 106.733 212.597 102.6C214.997 98.4667 217.464 94.1333 219.997 89.6C222.664 84.9333 225.197 80.2 227.597 75.4C230.13 70.6 232.464 65.8667 234.597 61.2C235.397 59.4667 236.797 58.6 238.797 58.6C240.93 58.6 242.997 59.0667 244.997 60C246.997 60.9333 248.597 62.2 249.797 63.8C251.13 65.2667 251.53 66.6 250.997 67.8C249.53 71 247.864 75.2 245.997 80.4C244.13 85.4667 242.397 90.8 240.797 96.4C239.33 101.867 238.13 107.067 237.197 112C236.264 116.933 235.997 120.667 236.397 123.2C238.93 121.6 241.53 119.067 244.197 115.6C246.864 112.133 249.397 108.4 251.797 104.4C254.33 100.4 256.597 96.4 258.597 92.4C260.73 88.2667 262.464 84.8 263.797 82Z" fill="white"/>
</svg>
